<svg xmlns="http://www.w3.org/2000/svg" viewBox="0 0 1024 1024" width="512" height="512">
  <g id="background">
    <path d="M0 0 C6.563 5.16 11.619 11.401 15.301 18.881 C15.57 19.426 15.848 19.966 16.127 20.506 C20.385 28.926 19.805 41.738 17.713 50.775 C17.693 50.859 17.693 50.859 17.595 51.286 C16.967 53.865 15.818 56.133 14.588 58.462 C14.738 58.428 14.738 58.428 15.496 58.252 C18.638 57.555 21.657 57.274 24.869 57.224 C25.111 57.219 25.353 57.214 25.603 57.209 C27.431 57.173 29.259 57.156 31.088 57.15 C31.222 57.149 31.222 57.149 31.903 57.147 C40.401 57.127 48.026 57.457 55.847 61.117 C56.627 61.48 57.411 61.829 58.197 62.178 C65.291 65.366 70.968 69.347 76.541 74.747 C84.318 82.234 90.489 85.462 101.588 85.462 C107.588 81.462 107.588 81.462 112.588 69.462 C118.588 64.462 118.588 64.462 126.588 64.462 C134.617 67.791 139.66 73.209 143.015 81.213 C144.904 85.886 146.114 90.446 146.588 95.462 C146.616 95.736 146.643 96.01 146.672 96.292 C148.264 112.593 143.044 128.176 133.588 141.462 C133.415 141.708 133.242 141.954 133.064 142.207 C123.479 155.778 110.527 163.94 95.354 170.148 C94.677 170.426 94.003 170.709 93.33 170.996 C90.801 172.061 88.254 172.823 85.588 173.462 C85.325 173.527 85.062 173.592 84.791 173.658 C62.59 179.067 38.978 177.911 12.266 166.813 C11.558 166.447 10.846 166.092 10.132 165.738 C-0.797 160.262 -8.892 152.051 -17.412 143.462 C-17.513 143.661 -17.614 143.86 -17.718 144.065 C-23.255 154.934 -28.925 164.398 -37.784 172.857 C-38.381 173.432 -38.966 174.017 -39.547 174.608 C-54.692 189.989 -78.555 198.225 -106.412 201.462 C-106.599 201.474 -106.786 201.485 -106.979 201.497 C-128.972 202.813 -150.019 198.945 -186.412 177.462 C-191.412 178.462 -191.412 178.462 -193.213 180.115 C-198.057 184.54 -202.989 188.816 -208.091 192.942 C-211.481 195.686 -214.818 198.485 -218.138 201.313 C-222.292 204.849 -226.465 208.348 -230.743 211.735 C-234.869 215.002 -238.929 218.345 -242.987 221.696 C-258.723 234.686 -274.499 247.621 -294.412 262.462 C-293.187 266.594 -290.966 269.47 -288.133 272.651 C-286.875 274.063 -285.645 275.5 -284.412 276.935 C-281.482 280.338 -279.077 283.391 -276.716 286.499 C-271.24 293.7 -268.816 296.804 -266.381 299.9 C-262.716 304.562 -260.068 307.9 -257.4 311.224 C-250.794 319.454 -246.527 324.868 -242.333 330.348 C-237.908 336.13 -235.008 339.852 -232.109 343.576 C-224.331 353.566 -221.524 357.175 -218.717 360.784 C-212.865 368.308 -210.061 371.914 -207.258 375.522 C-201.808 382.537 -196.356 389.552 -190.869 396.539 C-187.046 401.413 -184.148 405.047 -181.244 408.675 C-179.22 411.203 -178.316 412.333 -177.412 413.462 C-176.582 413.464 -169.833 413.478 -163.085 413.522 C-156.337 413.594 -153.073 413.629 -149.809 413.654 C-146.545 413.658 C-126.156 413.688 -104.59 414.507 -88.967 429.775 C-85.311 433.492 -82.609 438.088 -80.221 442.689 C-74.792 453.44 -75.141 464.573 -75.268 475.771 C-75.291 477.815 -75.302 479.858 -75.311 481.902 C-75.332 486.089 -75.367 490.276 -75.412 494.462 C-66.495 494.139 -62.682 494.232 -62.044 494.247 C-44.142 494.737 -25.156 500.774 -12.494 514.017 C-10.152 516.579 -8.25 519.425 -6.475 522.4 C-1.205 531.31 0.049 539.991 -0.108 549.371 C-0.127 550.717 -0.128 552.064 -0.132 553.41 C-0.141 555.943 -0.166 558.474 -0.196 561.006 C-0.354 587.402 -1.956 590.715 -2.477 591.818 C-4.234 595.594 -6.256 598.106 -10.222 599.573 C-22.729 604.05 -36.533 604.78 -49.658 605.979 C-56.552 606.614 -61.98 607.054 -67.412 607.462 C-88.859 609.075 -109.58 610.172 -134.355 611.063 C-159.942 611.972 -183.475 612.482 -261.912 612.837 C-281.963 612.836 -301.405 612.787 -415.588 609.564 C-434.113 608.563 -447.271 607.711 -460.412 606.462 C-466.936 605.843 -472.857 605.238 -478.774 604.587 C-487.972 603.594 -494.882 602.806 -501.65 600.974 C-510.055 598.692 -512.829 594.795 -517.412 587.462 C-517.503 581.411 -517.577 575.36 -517.619 569.309 C-517.714 560.875 C-518.108 536.406 -513.412 527.462 C-511.467 523.728 -509.744 520.822 -507.776 517.99 C-503.646 511.731 -499.196 508.757 -494.475 505.712 C-487.201 501.005 -480.252 498.189 -472.342 496.402 C-464.025 494.427 -461.328 494.38 -458.412 494.462 C-458.513 489.041 -458.578 484.214 -458.619 479.386 C-458.714 472.382 C-459.102 452.429 -454.656 443.934 C-453.059 440.592 -452.394 439.43 -451.662 438.275 C-448.353 432.939 -444.672 429.032 -440.412 425.462 C-435.311 421.21 -430.468 418.876 -424.787 417.087 C-419.759 415.495 -415.823 415.252 -411.412 415.462" fill="#F9B01F" transform="translate(733.412109375,170.53778076171875)"/>
    <path d="M0 0 C0.107 -0.002 0.649 -0.015 C2.282 -0.051 3.914 -0.068 5.547 -0.074 C26.579 -0.129 46.18 6.209 61.626 19.656 C75.418 31.474 82.588 44.977 87.238 59.594 C88.928 65.09 89.489 69.565 89.605 74.367 C89.685 77.426 89.716 79.613 89.734 81.801 C89.831 95.115 88.186 105.901 83.297 117.238 C79.978 124.846 75.806 130.644 71.127 136.236 C60.138 150.354 46.307 158.554 32.359 163.176 C23.938 165.944 16.685 166.427 8.864 166.424 C0.579 166.52 -4.501 166.345 -9.756 164.951 C-12.761 164.155 -15.604 164.02 -18.703 164.238" fill="#FDD833" transform="translate(288.703125,331.76171875)"/>
    <path d="M0 0 C0.693 0.332 2.089 0.972 C16.302 7.555 27.06 19.324 32.622 33.988 C34.892 41.86 34.874 45.918 34.861 50.01 C34.853 59.762 33.267 67.833 29.674 76.323 C14.661 83.862 4.074 93.71 -5.326 106.323 C-34.945 107.887 -46.827 104.243 -56.868 94.745 C-66.881 86.404 -72.943 74.571 -75.326 64.323 C-79.05 49.103 -75.319 33.619 -67.693 20.913 C-62.247 11.99 -53.844 4.596 -44.326 0.323 C-30.661 -5.872 -12.906 -6.205 0 0 Z" fill="#FCFCFA" transform="translate(610.3260498046875,172.6771240234375)"/>
    <path d="M0 0 C6.563 5.16 11.619 11.401 15.301 18.881 C20.383 28.923 19.772 41.661 17.775 50.712 C16.794 54.559 15.181 56.981 13.588 59.462 C2.625 63.266 -5.41 67.632 -13.725 75.025 C-17.401 78.305 -19.921 81.218 -22.412 84.462 C-32.412 84.462 -44.077 78.223 -49.085 76.542 -54.787 75.525 C-57.328 75.074 -59.367 74.75 -61.412 74.462 C-66.044 69.304 -69.932 64.091 -72.85 57.775 C-76.263 50.515 -76.683 43.773 -76.725 36.712 C-76.76 29.328 -75.546 23.604 -72.412 17.462 C-66.27 5.146 -56.821 -3.88 -44.379 -8.221 C-29.777 -12.962 -12.016 -9.146 0 0 Z" fill="#FBFBFA" transform="translate(733.412109375,170.53778076171875)"/>
    <path d="M0 0 C10.874 -1.225 21.078 1.96 29.705 8.705 C37.325 14.843 43.083 24.563 44.248 34.312 C45.583 46.808 43.119 57.981 35.209 67.941 C31.421 72.504 26.631 75.537 21.33 78.08 C12.296 82.423 -1.007 83.063 -9.913 80.05 C-22.778 72.455 -27.722 67.47 -31.361 60.646 C-37.134 50.846 -37.391 38.643 -35.356 29.486 C-25.28 10.999 -17.063 3.952 -6.516 1.097 C-4.369 0.553 -2.196 0.262 0 0 Z" fill="#5E5E5F" transform="translate(289.669921875,374.91998291015625)"/>
    <path d="M0 0 C4.817 3.759 8.722 8.468 11.477 13.918 C15.576 22.125 15.321 33.021 12.648 41.074 C9.64 49.506 3.12 57.618 -4.898 61.73 C-12.05 65.07 -20.039 66.89 -27.898 65.73 C-37.297 64.285 -45.895 59.045 -51.242 51.927 C-59.284 38.202 -59.326 27.297 -57.712 19.871 C-53.529 12.496 -49.961 18.855 C-48.124 21.691 -47.153 22.228 -44.898 23.73 C-35.898 23.73 -30.898 19.73 C-29.898 17.73 -29.898 9.73 C-34.898 3.73 -43.898 0.73 C-41.753 -1.663 -36.961 -4.957 C-24.893 -10.74 -9.649 -7.277 0 0 Z" fill="#3D3D3E" transform="translate(614.8984375,197.26953125)"/>
    <path d="M0 0 C2.879 2.46 5.243 5.417 7.388 8.523 C12.371 15.865 12.63 24.414 11.248 32.324 C9.785 39.509 5.974 46.738 -0.213 50.93 C-8.555 56.199 -18.275 58.372 -28.062 56.239 C-45.421 44.276 -49.612 35.523 C-50.549 32.999 -50.783 31.351 -50.815 29.414 C-50.883 19.818 -50.404 15.785 -47.612 11.523 C-46.348 13.389 -43.58 17.892 C-42.612 19.523 C-40.612 20.523 -31.612 20.523 C-27.612 16.523 -26.612 9.523 C-30.612 4.523 -38.612 1.523 C-28.967 -8.121 -10.99 -8.572 0 0 Z" fill="#3D3D3E" transform="translate(723.6116943359375,185.47711181640625)"/>
    <path d="M0 0 C0.99 0.33 3 1 C1 4 -0.25 4.594 C-9.878 9.456 -15.803 17.808 -21 27 C-24.19 32.634 -28.25 43.188 C-30.701 50.351 -31.214 56.859 -31.188 63.625 C-31.123 85.308 -24.299 103.782 -9.191 118.843 C2.117 129.914 17.931 138.354 34.07 138.263 C40 138 C47.632 142.45 41.363 150.446 31 155 C16.548 154.585 0.81 151.248 -9.717 140.468 C-18 135 C-38.126 104.898 C-42.609 93.85 -44.577 84.025 -44.447 73.543 C-44.255 48.787 -35.549 29.22 -19.662 13.546 C-13.768 7.864 -7.228 3.773 0 0 Z" fill="#FBB823" transform="translate(544,158)"/>
    <path d="M0 0 C18.183 -1.206 36.845 3.481 52.296 16.434 C68.661 32.439 74.266 42.543 77.572 52.433 C80.341 60.745 80.271 68.63 80.197 76.558 C80.134 86.058 C55.134 87.058 C57.134 81.058 C58.278 73.202 58.509 65.933 C58.6 53.872 54.562 43.95 46.621 35.573 C40.737 29.211 35.846 26.134 29.884 23.62 C22.802 20.676 17.25 19.781 10.572 19.745 C-2.585 19.698 -13.079 24.289 -22.089 33.159 C-30.741 45.183 C-33.992 51.758 -35.236 57.76 -35.124 64.417 C-34.994 74.588 -33.557 81.045 -29.779 88.783 C-26.908 94.657 -24.221 98.349 -20.866 102.058 C-36.685 102.633 -42.821 103.685 -49.269 106.474 C-52.866 107.058 C-51.143 99.956 C-49.323 92.839 C-48.747 88.437 -48.553 81.433 C-48.508 69.039 -52.357 59.151 -59.42 49.658 C-66.235 40.354 -74.154 35.553 -82.616 31.745 C-86.866 30.058 C-92.873 27.909 -97.922 27.654 -103.491 27.683 C-117.032 27.713 -127.625 31.033 -137.866 39.058 C-148.894 47.756 -155.996 61.301 -157.687 74.409 C-159.47 89.984 -155.542 105.481 -145.76 117.925 C-141.057 123.705 -135.389 128.477 -128.866 132.058 C-116.148 139.148 -102.149 137.558 -88.866 137.058 C-92.714 145.257 C-101.234 158.508 -107.503 166.504 -117.866 171.058 C-132.318 170.643 -148.056 167.306 -158.583 156.526 C-166.866 151.058 C-186.992 120.955 C-191.475 109.908 -193.443 100.083 -193.313 89.601 C-193.121 64.819 -184.387 45.427 -168.616 29.648 C-162.214 23.402 -154.815 19 -146.866 15.058 C-138.954 11.314 C-129.569 6.971 -118.722 6.645 -108.553 6.683 C-98.496 6.687 -90.358 7.49 -81.653 10.767 C-70.47 14.584 -63.273 19.542 -55.866 25.058 C-51.186 24.375 C-41.717 14.963 -30.125 7.381 -17.372 3.225 C-11.256 1.116 -6.546 0.388 -1.646 0.104 C0 0 Z" fill="#FDD033" transform="translate(692.8658447265625,141.942138671875)"/>
  </g>
</svg>