<svg xmlns="http://www.w3.org/2000/svg" viewBox="0 0 1024 572">
  <path d="M 0.0 0.0 C 136.5 -76.3 887.5 -76.3 1024.0 0.0 C 1160.5 76.3 1160.5 495.7 1024.0 572.0 C 887.5 648.3 136.5 648.3 0.0 572.0 C -136.5 495.7 -136.5 76.3 0.0 0.0 Z" fill="#0A152A" transform="translate(0,0)"/>
  <path d="M 258.0 319.0 C 254.7 330.9 245.6 351.9 242.0 360.0 C 238.4 368.1 235.3 373.5 231.0 380.0 C 226.7 386.5 217.5 400.5 210.0 409.0 C 202.5 417.5 185.7 435.5 175.0 444.0 C 164.3 452.5 142.9 466.5 130.0 473.0 C 117.1 479.5 90.5 489.4 78.0 493.0 C 65.5 496.6 46.9 499.1 36.0 500.0 C 25.1 500.9 7.9 501.2 -4.0 500.0 C -15.9 498.8 -40.7 494.5 -53.0 491.0 C -65.3 487.5 -84.1 480.3 -96.0 474.0 C -107.9 467.7 -132.0 451.6 -142.0 444.0 C -152.0 436.4 -163.3 425.9 -171.0 417.0 C -178.7 408.1 -193.7 387.3 -200.0 377.0 C -206.3 366.7 -214.4 348.5 -218.0 340.0 C -221.6 331.5 -225.0 320.7 -227.0 313.0 C -229.0 305.3 -231.9 292.1 -233.0 282.0 C -234.1 271.9 -235.5 248.9 -235.0 237.0 C -234.5 225.1 -231.7 204.5 -229.0 193.0 C -226.3 181.5 -219.9 162.2 -215.0 151.0 C -210.1 139.8 -200.1 120.5 -192.0 109.0 C -183.9 97.5 -164.8 75.0 -154.0 65.0 C -143.2 55.0 -122.3 40.8 -111.0 34.0 C -99.7 27.2 -81.0 18.3 -69.0 14.0 C -57.0 9.7 -34.6 3.9 -21.0 2.0 C -7.4 0.1 19.0 -0.9 33.0 0.0 C 47.0 0.9 72.1 5.9 84.0 9.0 C 95.9 12.1 112.9 19.0 122.0 23.0 C 131.1 27.0 145.7 35.3 152.0 39.0 C 158.3 42.7 161.9 45.0 169.0 51.0 C 176.1 57.0 196.1 73.7 205.0 84.0 C 213.9 94.3 228.9 115.3 236.0 128.0 C 243.1 140.7 253.9 165.7 258.0 179.0 C 262.1 192.3 265.8 215.7 267.0 228.0 C 268.2 240.3 268.2 258.9 267.0 271.0 C 265.8 283.1 261.3 307.1 258.0 319.0 Z" fill="#7364B8" transform="translate(699,39)"/>
  <path d="M 467.0 572.0 C 404.1 648.3 65.7 577.7 -5.0 572.0 C -75.7 566.3 -50.2 540.1 -63.0 529.0 C -75.8 517.9 -92.3 499.7 -101.0 489.0 C -109.7 478.3 -122.5 457.9 -128.0 449.0 C -133.5 440.1 -137.7 432.1 -142.0 422.0 C -146.3 411.9 -156.8 383.0 -160.0 373.0 C -163.2 363.0 -164.5 356.3 -166.0 347.0 C -167.5 337.7 -170.6 316.3 -171.0 303.0 C -171.4 289.7 -170.6 261.0 -169.0 247.0 C -167.4 233.0 -161.7 208.5 -159.0 198.0 C -156.3 187.5 -153.8 178.9 -149.0 168.0 C -144.2 157.1 -131.4 129.3 -123.0 116.0 C -114.6 102.7 -95.6 78.8 -86.0 68.0 C -76.4 57.2 -62.5 44.1 -51.0 35.0 C -39.5 25.9 -69.1 4.7 0.0 0.0 C 69.1 -4.7 404.7 -76.3 467.0 0.0 C 529.3 76.3 529.9 495.7 467.0 572.0 ZM 370.0 424.0 C 377.1 413.1 387.6 391.3 392.0 381.0 C 396.4 370.7 400.7 356.5 403.0 347.0 C 405.3 337.5 408.2 320.7 409.0 310.0 C 409.8 299.3 409.5 276.5 409.0 267.0 C 408.5 257.5 407.5 249.1 405.0 239.0 C 402.5 228.9 394.8 202.6 390.0 191.0 C 385.2 179.4 375.8 162.1 369.0 152.0 C 362.2 141.9 347.8 124.1 339.0 115.0 C 330.2 105.9 311.5 90.4 303.0 84.0 C 294.5 77.6 281.9 70.7 275.0 67.0 C 268.1 63.3 259.5 59.1 251.0 56.0 C 242.5 52.9 221.1 46.3 211.0 44.0 C 200.9 41.7 187.0 39.4 175.0 39.0 C 163.0 38.6 134.6 39.1 121.0 41.0 C 107.4 42.9 85.3 48.6 73.0 53.0 C 60.7 57.4 41.1 66.4 29.0 74.0 C 16.9 81.6 -7.1 99.6 -18.0 110.0 C -28.9 120.4 -45.9 142.0 -53.0 152.0 C -60.1 162.0 -67.5 177.9 -71.0 185.0 C -74.5 192.1 -76.5 196.6 -79.0 205.0 C -81.5 213.4 -88.1 235.3 -90.0 248.0 C -91.9 260.7 -93.4 287.3 -93.0 300.0 C -92.6 312.7 -88.5 334.7 -87.0 343.0 C -85.5 351.3 -84.9 353.9 -82.0 362.0 C -79.1 370.1 -70.1 394.0 -65.0 404.0 C -59.9 414.0 -51.2 427.7 -44.0 437.0 C -36.8 446.3 -20.9 465.1 -11.0 474.0 C -1.1 482.9 19.1 497.3 30.0 504.0 C 40.9 510.7 59.0 519.6 71.0 524.0 C 83.0 528.4 105.7 535.0 120.0 537.0 C 134.3 539.0 167.1 539.1 178.0 539.0 C 188.9 538.9 192.0 538.4 202.0 536.0 C 212.0 533.6 240.2 526.2 253.0 521.0 C 265.8 515.8 286.5 504.7 298.0 497.0 C 309.5 489.3 329.4 472.7 339.0 463.0 C 348.6 453.3 362.9 434.9 370.0 424.0 Z" fill="#29225E" transform="translate(557,0)"/>
  <path d="M 258.0 319.0 C 254.7 330.9 245.6 351.9 242.0 360.0 C 238.4 368.1 235.3 373.5 231.0 380.0 C 226.7 386.5 217.5 400.5 210.0 409.0 C 202.5 417.5 185.7 435.5 175.0 444.0 C 164.3 452.5 142.9 466.5 130.0 473.0 C 117.1 479.5 90.5 489.4 78.0 493.0 C 65.5 496.6 46.9 499.1 36.0 500.0 C 25.1 500.9 7.9 501.2 -4.0 500.0 C -15.9 498.8 -40.7 494.5 -53.0 491.0 C -65.3 487.5 -84.1 480.3 -96.0 474.0 C -107.9 467.7 -132.0 451.6 -142.0 444.0 C -152.0 436.4 -163.3 425.9 -171.0 417.0 C -178.7 408.1 -193.7 387.3 -200.0 377.0 C -206.3 366.7 -214.4 348.5 -218.0 340.0 C -221.6 331.5 -225.0 320.7 -227.0 313.0 C -229.0 305.3 -231.9 292.1 -233.0 282.0 C -234.1 271.9 -235.5 248.9 -235.0 237.0 C -234.5 225.1 -231.7 204.5 -229.0 193.0 C -226.3 181.5 -219.9 162.2 -215.0 151.0 C -210.1 139.8 -200.1 120.5 -192.0 109.0 C -183.9 97.5 -164.8 75.0 -154.0 65.0 C -143.2 55.0 -122.3 40.8 -111.0 34.0 C -99.7 27.2 -81.0 18.3 -69.0 14.0 C -57.0 9.7 -34.6 3.9 -21.0 2.0 C -7.4 0.1 19.0 -0.9 33.0 0.0 C 47.0 0.9 72.1 5.9 84.0 9.0 C 95.9 12.1 112.9 19.0 122.0 23.0 C 131.1 27.0 145.7 35.3 152.0 39.0 C 158.3 42.7 161.9 45.0 169.0 51.0 C 176.1 57.0 196.1 73.7 205.0 84.0 C 213.9 94.3 228.9 115.3 236.0 128.0 C 243.1 140.7 253.9 165.7 258.0 179.0 C 262.1 192.3 265.8 215.7 267.0 228.0 C 268.2 240.3 268.2 258.9 267.0 271.0 C 265.8 283.1 261.3 307.1 258.0 319.0 ZM -32.0 431.0 C -22.9 433.4 -5.6 436.3 4.0 437.0 C 13.6 437.7 32.0 436.8 40.0 436.0 C 48.0 435.2 55.6 433.7 64.0 431.0 C 72.4 428.3 90.6 422.9 103.0 416.0 C 115.4 409.1 149.4 385.1 157.0 379.0 C 164.6 372.9 157.9 373.5 160.0 370.0 C 162.1 366.5 168.9 360.1 173.0 353.0 C 177.1 345.9 187.7 324.7 191.0 317.0 C 194.3 309.3 196.4 301.9 198.0 295.0 C 199.6 288.1 202.3 273.8 203.0 265.0 C 203.7 256.2 204.3 239.5 203.0 229.0 C 201.7 218.5 196.9 196.9 193.0 186.0 C 189.1 175.1 178.1 154.3 174.0 147.0 C 169.9 139.7 168.0 137.9 162.0 131.0 C 156.0 124.1 134.7 100.9 129.0 95.0 C 123.3 89.1 120.6 87.8 119.0 87.0 C 117.4 86.2 118.9 89.5 117.0 89.0 C 115.1 88.5 106.7 84.6 105.0 83.0 C 103.3 81.4 105.2 77.9 104.0 77.0 C 102.8 76.1 96.9 75.9 96.0 76.0 C 95.1 76.1 101.3 79.2 97.0 78.0 C 92.7 76.8 73.3 69.3 64.0 67.0 C 54.7 64.7 38.1 61.4 27.0 61.0 C 15.9 60.6 -7.7 62.0 -19.0 64.0 C -30.3 66.0 -49.3 72.5 -58.0 76.0 C -66.7 79.5 -77.2 85.6 -84.0 90.0 C -90.8 94.4 -103.3 104.1 -109.0 109.0 C -114.7 113.9 -123.8 124.3 -127.0 127.0 C -130.2 129.7 -132.2 128.1 -133.0 129.0 C -133.8 129.9 -129.8 127.7 -133.0 134.0 C -136.2 140.3 -152.2 165.2 -157.0 176.0 C -161.8 186.8 -167.1 203.3 -169.0 215.0 C -170.9 226.7 -171.8 252.0 -171.0 264.0 C -170.2 276.0 -165.7 295.5 -163.0 305.0 C -160.3 314.5 -155.7 326.3 -151.0 335.0 C -146.3 343.7 -133.7 362.7 -128.0 370.0 C -122.3 377.3 -116.5 383.5 -108.0 390.0 C -99.5 396.5 -74.1 413.5 -64.0 419.0 C -53.9 424.5 -41.1 428.6 -32.0 431.0 Z" fill="#423F89" transform="translate(699,39)"/>
</svg>